<?xml version="1.0" encoding="UTF-8"?>
<svg id="Layer_2" data-name="Layer 2" xmlns="http://www.w3.org/2000/svg" viewBox="0 0 337.99 337.99">
  <defs>
    <style>
      .cls-1 {
        fill: #fff;
      }

      .cls-2 {
        fill: #e7b339;
      }
    </style>
  </defs>
  <g id="Layer_1-2" data-name="Layer 1">
    <g>
      <rect x="0" y="0" width="337.99" height="337.99" rx="169" ry="169"/>
      <g>
        <path class="cls-2" d="M161.11,189.1l-19.97,19.97c-4.21,4.21-4.21,11.21,0,15.42l19.97,19.97c4.21,4.21,11.21,4.21,15.42,0l19.97-19.97c4.21-4.21,4.21-11.21,0-15.42l-19.97-19.97c-4.21-4.21-11.21-4.21-15.42,0Z"/>
        <path class="cls-1" d="M49.33,206.97l113.89-114.24c3.15-3.15,8.41-3.15,11.56,0l113.89,114.24c3.5,3.5,1.05,9.81-4.21,9.81h-62.03c-1.4,0-3.15-.7-4.21-1.75l-41.7-42.05c-4.21-4.21-11.21-4.21-15.42,0l-41.7,42.05c-1.05,1.05-2.45,1.75-4.21,1.75h-61.68c-5.26,0-7.71-6.31-4.21-9.81Z"/>
      </g>
    </g>
  </g>
</svg>